<svg width="14" height="14" viewBox="0 0 14 14" fill="none" xmlns="http://www.w3.org/2000/svg">
<path fill-rule="evenodd" clip-rule="evenodd" d="M2.03226 2.25804C1.61635 2.25804 1.35484 2.51955 1.35484 2.93546C1.35484 3.35136 1.61635 3.61288 2.03226 3.61288H11.9677C12.3836 3.61288 12.6452 3.35136 12.6452 2.93546C12.6452 2.51955 12.3836 2.25804 11.9677 2.25804H2.03226ZM0 2.93546C0 1.77129 0.868095 0.903198 2.03226 0.903198H11.9677C13.1319 0.903198 14 1.77129 14 2.93546C14 3.85955 13.453 4.59709 12.6452 4.86198V11.0645C12.6452 12.1869 11.7353 13.0967 10.6129 13.0967H3.3871C2.26471 13.0967 1.35484 12.1869 1.35484 11.0645V4.86198C0.546981 4.59709 0 3.85955 0 2.93546ZM2.70968 4.96771V11.0645C2.70968 11.4386 3.01297 11.7419 3.3871 11.7419H10.6129C10.987 11.7419 11.2903 11.4386 11.2903 11.0645V4.96771H2.70968ZM4.96774 7.45159C4.96774 7.07746 5.27103 6.77417 5.64516 6.77417H8.35484C8.72897 6.77417 9.03226 7.07746 9.03226 7.45159C9.03226 7.82571 8.72897 8.129 8.35484 8.129H5.64516C5.27103 8.129 4.96774 7.82571 4.96774 7.45159Z" fill="currentColor"/>
</svg>
