<svg width="14" height="14" viewBox="0 0 14 14" fill="none" xmlns="http://www.w3.org/2000/svg">
<path fill-rule="evenodd" clip-rule="evenodd" d="M5.09796 0.997175C6.63126 -0.336074 8.93311 -0.331919 10.4614 1.00686C12.2531 2.57629 12.2745 5.32823 10.5074 6.9245L7.74846 9.41677C6.83449 10.2424 5.4228 10.2122 4.54609 9.3482C3.64171 8.45696 3.6417 7.01198 4.54608 6.12075L6.16859 4.52182C6.45363 4.24093 6.91577 4.24093 7.2008 4.52182C7.48584 4.80272 7.48584 5.25814 7.2008 5.53903L5.5783 7.13796C5.24399 7.4674 5.24399 8.00154 5.5783 8.33099C5.90238 8.65036 6.42421 8.66153 6.76206 8.35633L9.521 5.86407C10.6503 4.84387 10.6367 3.08508 9.49163 2.08204C8.51486 1.22642 7.04372 1.22376 6.06378 2.07586L3.31276 4.46794C1.10869 6.38445 0.795904 9.67518 2.79582 11.5382C3.73982 12.4177 4.96317 12.6974 6.23838 12.5033C7.52578 12.3074 8.83555 11.6282 9.84304 10.6353L12.754 7.76667C13.039 7.48578 13.5012 7.48578 13.7862 7.76667C14.0713 8.04757 14.0713 8.50299 13.7862 8.78389L10.8752 11.6526C9.67056 12.8397 8.0847 13.678 6.46115 13.925C4.8254 14.1739 3.12248 13.8221 1.79302 12.5836C-0.962728 10.0165 -0.356072 5.73962 2.34695 3.38926L5.09796 0.997175Z" fill="currentColor"/>
</svg>
