<svg width="14" height="14" viewBox="0 0 14 14" fill="none" xmlns="http://www.w3.org/2000/svg">
<path fill-rule="evenodd" clip-rule="evenodd" d="M3.75697 1.34327C4.61705 0.483188 5.78357 0 6.9999 0C8.21624 0 9.38276 0.483188 10.2428 1.34327C11.1029 2.20335 11.5861 3.36987 11.5861 4.58621C11.5861 6.73239 12.045 8.05898 12.4632 8.82566C12.6733 9.21083 12.8771 9.46208 13.017 9.60974C13.0338 9.62746 13.0497 9.64373 13.0646 9.65858L13.2042 9.78324C13.2018 9.78142 13.1962 9.77721 13.1886 9.77115L13.084 9.67769C13.1222 9.71478 13.1528 9.74151 13.1736 9.7589L13.1886 9.77115L13.1956 9.77741L13.1965 9.778L13.1981 9.77911L13.2009 9.781L13.2042 9.78324C13.463 9.96172 13.5774 10.2874 13.4861 10.5892C13.3936 10.8946 13.1121 11.1034 12.793 11.1034H1.2068C0.887696 11.1034 0.606205 10.8946 0.513733 10.5892C0.422372 10.2874 0.537249 9.96138 0.796072 9.7829C0.799879 9.78006 0.810215 9.77221 0.826192 9.7589C0.858128 9.73228 0.912701 9.68377 0.982834 9.60974C1.12272 9.46208 1.32651 9.21083 1.5366 8.82566C1.95479 8.05898 2.4137 6.73239 2.4137 4.58621C2.4137 3.36987 2.89689 2.20335 3.75697 1.34327ZM5.22717 11.663C5.58471 11.4838 6.01982 11.6283 6.19901 11.9859C6.29421 12.1758 6.42425 12.3203 6.56591 12.4147C6.70635 12.5083 6.85568 12.5517 6.9999 12.5517C7.14412 12.5517 7.29346 12.5083 7.43389 12.4147C7.57555 12.3203 7.70559 12.1758 7.8008 11.9859C7.97999 11.6283 8.41509 11.4838 8.77264 11.663C9.13018 11.8422 9.27475 12.2773 9.09556 12.6348C8.89641 13.0322 8.60394 13.3753 8.23725 13.6197C7.86934 13.865 7.44233 14 6.9999 14C6.55748 14 6.13047 13.865 5.76256 13.6197C5.39587 13.3753 5.1034 13.0322 4.90424 12.6348C4.72505 12.2773 4.86963 11.8422 5.22717 11.663ZM10.395 7.27357L10.3953 7.2751C10.5944 8.22481 10.8868 8.95996 11.1918 9.51917C11.2172 9.56578 11.2427 9.61111 11.2682 9.65517H2.73165C2.75713 9.61111 2.78261 9.56578 2.80803 9.51917C3.35537 8.51573 3.86197 6.94578 3.86197 4.58621C3.86197 3.75398 4.19258 2.95583 4.78105 2.36735C5.36953 1.77888 6.16767 1.44828 6.9999 1.44828C7.83213 1.44828 8.63028 1.77888 9.21876 2.36735C9.80723 2.95583 10.1378 3.75398 10.1378 4.58621C10.1378 5.63011 10.237 6.51946 10.395 7.27357Z" fill="currentColor"/>
</svg>
