<svg width="14" height="14" viewBox="0 0 14 14" fill="none" xmlns="http://www.w3.org/2000/svg">
<path d="M7.80078 11.9863C7.97994 11.6289 8.41496 11.484 8.77246 11.6631C9.12991 11.8423 9.27477 12.2773 9.0957 12.6348C8.89655 13.0321 8.60396 13.3757 8.2373 13.6201C7.86951 13.8653 7.44225 13.9999 7 14C6.55782 14 6.13045 13.8652 5.7627 13.6201C5.39611 13.3757 5.10342 13.0321 4.9043 12.6348C4.72528 12.2774 4.86949 11.8424 5.22656 11.6631C5.58407 11.4839 6.02 11.6289 6.19922 11.9863C6.29435 12.1759 6.42398 12.3207 6.56543 12.415C6.70578 12.5086 6.85585 12.5517 7 12.5518C7.144 12.5517 7.29337 12.5084 7.43359 12.415C7.57516 12.3207 7.7056 12.1761 7.80078 11.9863Z" fill="currentColor"/>
<path fill-rule="evenodd" clip-rule="evenodd" d="M7 0C8.21618 7.15535e-05 9.38218 0.483809 10.2422 1.34375C10.4215 1.5231 10.584 1.71626 10.7295 1.91992L12.1387 0.458984L13.0039 1.29102L1.19141 13.541L0.326172 12.709L1.87402 11.1035H1.20703C0.888028 11.1034 0.60612 10.8942 0.513672 10.5889C0.422514 10.2873 0.537378 9.96167 0.795898 9.7832C0.799695 9.78038 0.810275 9.77203 0.826172 9.75879C0.85811 9.73216 0.912449 9.68323 0.982422 9.60938C1.1223 9.46172 1.32609 9.21025 1.53613 8.8252C1.95428 8.05849 2.41309 6.7319 2.41309 4.58594C2.41316 3.36986 2.89703 2.20373 3.75684 1.34375C4.61686 0.483727 5.78375 6.47165e-05 7 0ZM7 1.44824C6.16798 1.44831 5.36964 1.77894 4.78125 2.36719C4.19291 2.95559 3.8614 3.75386 3.86133 4.58594C3.86133 6.94551 3.35495 8.51609 2.80762 9.51953C2.78228 9.56597 2.75684 9.61136 2.73145 9.65527H3.27051L9.69922 2.98828C9.56679 2.76384 9.4062 2.55464 9.21875 2.36719C8.63035 1.77885 7.83208 1.44831 7 1.44824Z" fill="currentColor"/>
<path d="M11.5859 4.58594C11.5859 6.73163 12.0448 8.05844 12.4629 8.8252C12.6728 9.21001 12.8767 9.46166 13.0166 9.60938C13.0333 9.62699 13.0496 9.64343 13.0645 9.6582L13.2041 9.7832C13.2016 9.78135 13.1958 9.77733 13.1885 9.77148L13.1953 9.77734L13.1963 9.77832L13.1982 9.7793L13.2041 9.7832C13.4628 9.96162 13.5775 10.2872 13.4863 10.5889C13.3938 10.8942 13.112 11.1035 12.793 11.1035H5.02637L6.40625 9.65527H11.2676C11.2422 9.61133 11.2168 9.566 11.1914 9.51953C10.8864 8.96041 10.5946 8.22487 10.3955 7.27539L10.3945 7.27344C10.2958 6.80215 10.2207 6.27792 10.1777 5.69629L11.5703 4.23438C11.5793 4.35099 11.5859 4.46815 11.5859 4.58594Z" fill="currentColor"/>
</svg>
