<svg width="14" height="14" viewBox="0 0 14 14" fill="none" xmlns="http://www.w3.org/2000/svg">
<path fill-rule="evenodd" clip-rule="evenodd" d="M3.66675 1.33325C3.11446 1.33325 2.66675 1.78097 2.66675 2.33325V6.99992V11.6667C2.66675 12.219 3.11446 12.6667 3.66675 12.6667H8.33342C9.21747 12.6667 10.0653 12.3155 10.6904 11.6904C11.3156 11.0652 11.6667 10.2174 11.6667 9.33333C11.6667 8.44928 11.3156 7.60143 10.6904 6.97631C10.5782 6.86411 10.4589 6.76074 10.3334 6.66664C10.7636 6.09303 11.0001 5.392 11.0001 4.66659C11.0001 3.78253 10.6489 2.93468 10.0238 2.30956C9.39865 1.68444 8.5508 1.33325 7.66675 1.33325H3.66675ZM7.66675 8L4.66675 7.99992V10.6667H8.33342C8.68704 10.6667 9.02618 10.5262 9.27622 10.2761C9.52627 10.0261 9.66675 9.68696 9.66675 9.33333C9.66675 8.97971 9.52627 8.64057 9.27622 8.39052C9.02618 8.14048 8.68704 8 8.33342 8H7.66675ZM4.66675 5.99992V3.33325H7.66675C8.02037 3.33325 8.35951 3.47373 8.60956 3.72378C8.85961 3.97382 9.00008 4.31296 9.00008 4.66659C9.00008 5.02021 8.85961 5.35935 8.60956 5.60939C8.35951 5.85944 8.02037 5.99992 7.66675 5.99992H4.66675Z" fill="currentColor"/>
</svg>
