<svg width="14" height="14" viewBox="0 0 14 14" fill="none" xmlns="http://www.w3.org/2000/svg">
<path d="M11 1.66602C11.368 1.66615 11.6669 1.96501 11.667 2.33301V3C11.6668 3.36796 11.368 3.66588 11 3.66602C10.6779 3.66586 10.4097 3.43755 10.3477 3.13379L10.334 3H8.16992L5.88379 11H6.33398C6.70191 11.0003 7 11.299 7 11.667C6.99987 12.0349 6.70183 12.3337 6.33398 12.334H3.66699C3.29888 12.334 3.00013 12.0351 3 11.667C3 11.2988 3.2988 11 3.66699 11H4.49707L6.78223 3H4.33398C4.33381 3.36796 4.03496 3.66588 3.66699 3.66602C3.29891 3.66602 3.00018 3.36804 3 3V2.33301C3.00013 1.96493 3.29888 1.66602 3.66699 1.66602H11Z" fill="currentColor"/>
<path d="M12.8564 7.66895C13.1168 7.4086 13.5395 7.40861 13.7998 7.66895C14.0602 7.92929 14.0602 8.35196 13.7998 8.6123L12.5215 9.89062L13.7998 11.1689C14.0602 11.4293 14.0602 11.852 13.7998 12.1123C13.5395 12.3726 13.1168 12.3726 12.8564 12.1123L11.5781 10.834L10.2998 12.1123C10.0395 12.3726 9.61677 12.3726 9.35645 12.1123C9.09613 11.852 9.09616 11.4293 9.35645 11.1689L10.6348 9.89062L9.35645 8.6123C9.09613 8.35197 9.09616 7.9293 9.35645 7.66895C9.61679 7.4086 10.0395 7.40861 10.2998 7.66895L11.5781 8.94727L12.8564 7.66895Z" fill="currentColor"/>
</svg>
