<svg width="14" height="14" viewBox="0 0 14 14" fill="none" xmlns="http://www.w3.org/2000/svg">
<path fill-rule="evenodd" clip-rule="evenodd" d="M11.815 3.07817C12.0617 2.83153 12.0617 2.43163 11.815 2.18499C11.5684 1.93834 11.1685 1.93834 10.9218 2.18499L7 6.10681L3.07817 2.18499C2.83153 1.93834 2.43163 1.93834 2.18499 2.18499C1.93834 2.43163 1.93834 2.83153 2.18499 3.07817L6.10681 7L2.18499 10.9218C1.93834 11.1685 1.93834 11.5684 2.18499 11.815C2.43163 12.0617 2.83153 12.0617 3.07817 11.815L7 7.89319L10.9218 11.815C11.1685 12.0617 11.5684 12.0617 11.815 11.815C12.0617 11.5684 12.0617 11.1685 11.815 10.9218L7.89319 7L11.815 3.07817Z" fill="currentColor"/>
</svg>
