<svg width="14" height="14" viewBox="0 0 14 14" fill="none" xmlns="http://www.w3.org/2000/svg">
<path fill-rule="evenodd" clip-rule="evenodd" d="M0.744078 7.58923C0.418641 7.2638 0.418641 6.73616 0.744078 6.41072L4.07741 3.07739C4.40285 2.75195 4.93049 2.75195 5.25592 3.07739C5.58136 3.40283 5.58136 3.93046 5.25592 4.2559L2.51184 6.99998L5.25592 9.74406C5.58136 10.0695 5.58136 10.5971 5.25592 10.9226C4.93049 11.248 4.40285 11.248 4.07741 10.9226L0.744078 7.58923ZM9.07741 10.9226C8.75197 10.5971 8.75197 10.0695 9.07741 9.74406L11.8215 6.99998L9.07741 4.2559C8.75197 3.93046 8.75197 3.40283 9.07741 3.07739C9.40285 2.75195 9.93048 2.75195 10.2559 3.07739L13.5893 6.41072C13.9147 6.73616 13.9147 7.2638 13.5893 7.58923L10.2559 10.9226C9.93048 11.248 9.40285 11.248 9.07741 10.9226Z" fill="currentColor"/>
</svg>
