<svg width="14" height="14" viewBox="0 0 14 14" fill="none" xmlns="http://www.w3.org/2000/svg">
<path fill-rule="evenodd" clip-rule="evenodd" d="M8.53308 1.37878C8.89402 1.47722 9.10683 1.84962 9.00839 2.21057L6.29871 12.146C6.20027 12.507 5.82787 12.7198 5.46692 12.6214C5.10597 12.5229 4.89317 12.1505 4.99161 11.7896L7.70129 1.85408C7.79973 1.49314 8.17213 1.28034 8.53308 1.37878ZM4.31772 3.35977C4.58227 3.62432 4.58227 4.05324 4.31772 4.31778L1.63543 7.00007L4.31772 9.68235C4.58227 9.9469 4.58227 10.3758 4.31772 10.6404C4.05317 10.9049 3.62425 10.9049 3.3597 10.6404L0.198412 7.47907C-0.0661372 7.21453 -0.0661372 6.78561 0.198412 6.52106L3.3597 3.35977C3.62425 3.09522 4.05317 3.09522 4.31772 3.35977ZM9.68228 3.35977C9.94683 3.09522 10.3757 3.09522 10.6403 3.35977L13.8016 6.52106C14.0661 6.78561 14.0661 7.21453 13.8016 7.47907L10.6403 10.6404C10.3757 10.9049 9.94683 10.9049 9.68228 10.6404C9.41773 10.3758 9.41773 9.9469 9.68228 9.68235L12.3646 7.00007L9.68228 4.31778C9.41773 4.05324 9.41773 3.62432 9.68228 3.35977Z" fill="currentColor"/>
</svg>
