<svg width="14" height="14" viewBox="0 0 14 14" fill="none" xmlns="http://www.w3.org/2000/svg">
<path fill-rule="evenodd" clip-rule="evenodd" d="M7.74988 1.66675C7.74988 1.25253 7.41409 0.916748 6.99988 0.916748C6.58566 0.916748 6.24988 1.25253 6.24988 1.66675V7.85597L4.19683 5.80292C3.90394 5.51003 3.42907 5.51003 3.13617 5.80292C2.84328 6.09582 2.84328 6.57069 3.13617 6.86358L6.46155 10.189C6.59785 10.3294 6.78867 10.4167 6.99988 10.4167C7.21228 10.4167 7.40405 10.3285 7.54051 10.1866L10.8635 6.86358C11.1564 6.57069 11.1564 6.09582 10.8635 5.80292C10.5706 5.51003 10.0957 5.51003 9.80284 5.80292L7.74988 7.85589V1.66675ZM1.6665 9.58325C2.08072 9.58325 2.4165 9.91904 2.4165 10.3333V11.6666C2.4165 11.8213 2.47796 11.9697 2.58736 12.0791C2.69675 12.1885 2.84513 12.2499 2.99984 12.2499H10.9998C11.1545 12.2499 11.3029 12.1885 11.4123 12.0791C11.5217 11.9697 11.5832 11.8213 11.5832 11.6666V10.3333C11.5832 9.91904 11.919 9.58325 12.3332 9.58325C12.7474 9.58325 13.0832 9.91904 13.0832 10.3333V11.6666C13.0832 12.2191 12.8637 12.749 12.473 13.1397C12.0823 13.5304 11.5524 13.7499 10.9998 13.7499H2.99984C2.4473 13.7499 1.9174 13.5304 1.5267 13.1397C1.136 12.749 0.916504 12.2191 0.916504 11.6666V10.3333C0.916504 9.91904 1.25229 9.58325 1.6665 9.58325Z" fill="currentColor"/>
</svg>
