<svg width="14" height="14" viewBox="0 0 14 14" fill="none" xmlns="http://www.w3.org/2000/svg">
<path fill-rule="evenodd" clip-rule="evenodd" d="M10.9703 1.25C10.233 1.25 9.52599 1.54286 9.00469 2.06417L1.46967 9.59919C1.32902 9.73984 1.25 9.9306 1.25 10.1295V13C1.25 13.4142 1.58579 13.75 2 13.75H4.87048C5.0694 13.75 5.26016 13.671 5.40081 13.5303L12.9358 5.99531C13.4571 5.47401 13.75 4.76697 13.75 4.02974C13.75 3.29251 13.4571 2.58547 12.9358 2.06417C12.4145 1.54286 11.7075 1.25 10.9703 1.25ZM10.0654 3.12483C10.3053 2.88483 10.6309 2.75 10.9703 2.75C11.3097 2.75 11.6352 2.88483 11.8752 3.12483C12.1152 3.36482 12.25 3.69033 12.25 4.02974C12.25 4.36915 12.1152 4.69465 11.8752 4.93465L10.6852 6.12458L8.87542 4.31476L10.0654 3.12483ZM7.81476 5.37542L2.75 10.4402V12.25H4.55982L9.62458 7.18524L7.81476 5.37542Z" fill="currentColor"/>
</svg>
