<svg width="14" height="14" viewBox="0 0 14 14" fill="none" xmlns="http://www.w3.org/2000/svg">
<path fill-rule="evenodd" clip-rule="evenodd" d="M11.667 1.5835C12.2194 1.58358 12.749 1.80322 13.1396 2.19385C13.5303 2.58447 13.7499 3.11409 13.75 3.6665V10.3335C13.75 10.886 13.5303 11.4155 13.1396 11.8062C12.749 12.1968 12.2194 12.4164 11.667 12.4165H2.33301C1.78059 12.4164 1.25098 12.1968 0.860352 11.8062C0.469752 11.4155 0.25 10.886 0.25 10.3335V3.6665C0.250086 3.11409 0.469727 2.58447 0.860352 2.19385C1.25098 1.80322 1.78059 1.58358 2.33301 1.5835H11.667ZM7.41602 8.2915C7.16409 8.45945 6.83591 8.45945 6.58398 8.2915L1.75 5.06787V10.3335C1.75 10.4881 1.8116 10.6362 1.9209 10.7456C2.03022 10.8549 2.17842 10.9164 2.33301 10.9165H11.667C11.8216 10.9164 11.9698 10.8549 12.0791 10.7456C12.1884 10.6362 12.25 10.4881 12.25 10.3335V5.06787L7.41602 8.2915ZM2.33301 3.0835C2.17842 3.08358 2.03022 3.14508 1.9209 3.25439C1.89601 3.27928 1.87328 3.30594 1.85352 3.33447L7 6.76611L12.1465 3.33447C12.1267 3.30594 12.104 3.27928 12.0791 3.25439C11.9698 3.14508 11.8216 3.08358 11.667 3.0835H2.33301Z" fill="currentColor"/>
</svg>
