<svg width="14" height="14" viewBox="0 0 14 14" fill="none" xmlns="http://www.w3.org/2000/svg">
<path fill-rule="evenodd" clip-rule="evenodd" d="M7 12.6452C3.88226 12.6452 1.35484 10.1177 1.35484 7C1.35484 3.88226 3.88226 1.35484 7 1.35484C10.1177 1.35484 12.6452 3.88226 12.6452 7C12.6452 10.1177 10.1177 12.6452 7 12.6452ZM0 7C0 10.866 3.13401 14 7 14C10.866 14 14 10.866 14 7C14 3.13401 10.866 0 7 0C3.13401 0 0 3.13401 0 7ZM7 7.67742C7.37413 7.67742 7.67742 7.37413 7.67742 7V4.29032C7.67742 3.91619 7.37413 3.6129 7 3.6129C6.62587 3.6129 6.32258 3.91619 6.32258 4.29032V7C6.32258 7.37413 6.62587 7.67742 7 7.67742ZM7 10.6129C6.50116 10.6129 6.09677 10.2085 6.09677 9.70968C6.09677 9.21084 6.50116 8.80645 7 8.80645H7.00602C7.50486 8.80645 7.90925 9.21084 7.90925 9.70968C7.90925 10.2085 7.50486 10.6129 7.00602 10.6129H7Z" fill="currentColor"/>
</svg>
