<svg width="14" height="14" viewBox="0 0 14 14" fill="none" xmlns="http://www.w3.org/2000/svg">
<path d="M8.33333 0.99998C8.33333 1.36817 8.63181 1.66665 9 1.66665H11.3905L6.19526 6.86191C5.93491 7.12226 5.93491 7.54437 6.19526 7.80472C6.45561 8.06507 6.87772 8.06507 7.13807 7.80472L12.3333 2.60946V4.99998C12.3333 5.36817 12.6318 5.66665 13 5.66665C13.3682 5.66665 13.6667 5.36817 13.6667 4.99998V0.99998C13.6667 0.63179 13.3682 0.333313 13 0.333313H9C8.63181 0.333313 8.33333 0.63179 8.33333 0.99998Z" fill="currentColor"/>
<path d="M4 3.5H6.25C6.66421 3.5 7 3.16421 7 2.75C7 2.33579 6.66421 2 6.25 2H4C2.89543 2 2 2.89543 2 4V10C2 11.1046 2.89543 12 4 12H10C11.1046 12 12 11.1046 12 10V7.75C12 7.33579 11.6642 7 11.25 7C10.8358 7 10.5 7.33579 10.5 7.75V10C10.5 10.2761 10.2761 10.5 10 10.5H4C3.72386 10.5 3.5 10.2761 3.5 10V4C3.5 3.72386 3.72386 3.5 4 3.5Z" fill="currentColor"/>
</svg>
