<svg width="14" height="14" viewBox="0 0 14 14" fill="none" xmlns="http://www.w3.org/2000/svg">
<path d="M6.64062 9.875C6.98578 9.87503 7.26562 10.1548 7.26562 10.5C7.26562 10.8452 6.98578 11.125 6.64062 11.125H4.64062C4.29545 11.125 4.01562 10.8452 4.01562 10.5C4.01562 10.1548 4.29545 9.875 4.64062 9.875H6.64062Z" fill="currentColor"/>
<path d="M8.64062 7.375C8.98577 7.37503 9.26562 7.65484 9.26562 8C9.26562 8.34516 8.98577 8.62497 8.64062 8.625H4.64062C4.29545 8.625 4.01562 8.34518 4.01562 8C4.01562 7.65482 4.29545 7.375 4.64062 7.375H8.64062Z" fill="currentColor"/>
<path fill-rule="evenodd" clip-rule="evenodd" d="M7.60352 0C7.80047 1.08912e-05 7.98848 0.0806829 8.125 0.222656L12.3496 4.61523C12.4793 4.75012 12.5517 4.93007 12.5518 5.11719V12.0205C12.5518 12.5365 12.3549 13.037 11.9961 13.4102C11.6364 13.7842 11.1425 13.9999 10.6211 14H3.37891C2.85755 13.9999 2.36356 13.7842 2.00391 13.4102C1.64509 13.037 1.44824 12.5365 1.44824 12.0205V1.97949C1.44824 1.46352 1.64509 0.96302 2.00391 0.589844C2.36356 0.215804 2.85755 0.000118934 3.37891 0H7.60352ZM3.37891 1.44824C3.26038 1.44836 3.14066 1.49723 3.04785 1.59375C2.95404 1.69135 2.89648 1.82972 2.89648 1.97949V12.0205C2.89648 12.1703 2.95404 12.3087 3.04785 12.4062C3.14066 12.5028 3.26038 12.5516 3.37891 12.5518H10.6211C10.7396 12.5517 10.8593 12.5028 10.9521 12.4062C11.046 12.3086 11.1035 12.1703 11.1035 12.0205V6.27539H7C6.60009 6.27538 6.27639 5.95166 6.27637 5.55176V1.44824H3.37891ZM7.72461 4.82715H10.5449L7.72461 1.89453V4.82715Z" fill="currentColor"/>
</svg>
