<svg width="14" height="14" viewBox="0 0 14 14" fill="none" xmlns="http://www.w3.org/2000/svg">
<g clip-path="url(#clip0_232_165)">
<path fill-rule="evenodd" clip-rule="evenodd" d="M13.3926 9.5459C13.3923 10.9673 12.2397 12.12 10.8184 12.1201C9.39688 12.1201 8.24439 10.9673 8.24414 9.5459C8.24414 8.12427 9.39673 6.97168 10.8184 6.97168C11.2697 6.97172 11.6937 7.0879 12.0625 7.29199V2.05762L5.75586 3.1084V10.8184L5.74316 11.0811C5.6115 12.3792 4.51451 13.3925 3.18164 13.3926C1.76017 13.3924 0.607503 12.2398 0.607422 10.8184C0.607422 9.39681 1.76012 8.24427 3.18164 8.24414C3.63284 8.24416 4.05703 8.36049 4.42578 8.56445V1.98145L4.98145 1.88965L13.3926 0.487305V9.5459ZM3.18164 9.57422C2.49466 9.57435 1.9375 10.1313 1.9375 10.8184C1.93758 11.5053 2.49471 12.0624 3.18164 12.0625C3.86864 12.0625 4.4257 11.5054 4.42578 10.8184C4.42578 10.1313 3.86869 9.57427 3.18164 9.57422ZM10.8184 8.30176C10.1313 8.30176 9.57422 8.85881 9.57422 9.5459C9.57446 10.2328 10.1314 10.79 10.8184 10.79C11.5052 10.7899 12.0623 10.2327 12.0625 9.5459C12.0625 8.85888 11.5054 8.30187 10.8184 8.30176Z" fill="currentColor"/>
</g>
<defs>
<clipPath id="clip0_232_165">
<rect width="14" height="14" fill="white"/>
</clipPath>
</defs>
</svg>
