<svg width="14" height="14" viewBox="0 0 14 14" fill="none" xmlns="http://www.w3.org/2000/svg">
<path fill-rule="evenodd" clip-rule="evenodd" d="M3.37928 0C2.85777 0 2.36364 0.21572 2.00389 0.589863C1.64507 0.96304 1.44824 1.46333 1.44824 1.97931V12.0207C1.44824 12.5367 1.64507 13.037 2.00389 13.4101C2.36364 13.7843 2.85776 14 3.37928 14H10.6207C11.1422 14 11.6363 13.7843 11.996 13.4101C12.3549 13.037 12.5517 12.5367 12.5517 12.0207V5.55172V5.11724C12.5517 4.9301 12.4792 4.75023 12.3495 4.61533L8.1254 0.222232C7.98887 0.0802435 7.80039 0 7.60341 0H6.99997H3.37928ZM6.27583 1.44828H3.37928C3.26061 1.44828 3.14078 1.49704 3.04785 1.59368C2.954 1.69128 2.89652 1.82951 2.89652 1.97931V12.0207C2.89652 12.1705 2.954 12.3087 3.04785 12.4063C3.14078 12.503 3.26061 12.5517 3.37928 12.5517H10.6207C10.7393 12.5517 10.8592 12.503 10.9521 12.4063C11.0459 12.3087 11.1034 12.1705 11.1034 12.0207V6.27586H6.99997C6.60004 6.27586 6.27583 5.95165 6.27583 5.55172V1.44828ZM10.5445 4.82759H7.7241V1.89442L10.5445 4.82759Z" fill="currentColor"/>
</svg>
