<svg width="14" height="15" viewBox="0 0 14 15" fill="none" xmlns="http://www.w3.org/2000/svg">
<path d="M10.1445 10.2041C10.6738 10.2041 11.0911 10.3108 11.3965 10.5244C11.7019 10.7365 11.871 11.0285 11.9033 11.4004L10.7607 11.4297C10.7489 11.3515 10.7166 11.282 10.6641 11.2217C10.6115 11.1597 10.5419 11.1114 10.457 11.0771C10.374 11.0414 10.2771 11.0234 10.167 11.0234C10.0228 11.0235 9.89962 11.051 9.79785 11.1064C9.69774 11.1619 9.64869 11.2374 9.65039 11.332C9.6487 11.4054 9.67952 11.4687 9.74219 11.5225C9.80667 11.5763 9.92133 11.6197 10.0859 11.6523L10.8389 11.79C11.2291 11.8618 11.5199 11.9801 11.71 12.1465C11.9017 12.3129 11.9983 12.5336 12 12.8076C11.9983 13.0653 11.9185 13.2896 11.7607 13.4805C11.6046 13.6713 11.3907 13.8197 11.1191 13.9258C10.8476 14.0302 10.5371 14.082 10.1875 14.082C9.62923 14.082 9.18862 13.9722 8.86621 13.752C8.54563 13.5301 8.36221 13.2332 8.31641 12.8613L9.5459 12.832C9.57305 12.9691 9.64411 13.0737 9.75781 13.1455C9.87139 13.2171 10.0162 13.2529 10.1924 13.2529C10.3519 13.2529 10.4819 13.2241 10.582 13.167C10.6821 13.1099 10.7327 13.0341 10.7344 12.9395C10.7326 12.8548 10.6944 12.7868 10.6182 12.7363C10.5418 12.6841 10.4217 12.6436 10.2588 12.6143L9.57715 12.4893C9.18526 12.4208 8.89293 12.2946 8.70117 12.1104C8.50941 11.9244 8.41432 11.6875 8.41602 11.4004C8.41435 11.1492 8.48418 10.9346 8.625 10.7568C8.76584 10.5775 8.96608 10.4403 9.22559 10.3457C9.48517 10.2511 9.79167 10.2041 10.1445 10.2041Z" fill="currentColor"/>
<path d="M3.96289 11.4912L4.62988 10.2529H5.88477L4.79199 12.1318L5.9248 14.0117H4.68066L3.96289 12.7637L3.2627 14.0117H2L3.13574 12.1318L2.05566 10.2529H3.31836L3.96289 11.4912Z" fill="currentColor"/>
<path d="M7.69727 14.0117H6.45312V9H7.69727V14.0117Z" fill="currentColor"/>
<path fill-rule="evenodd" clip-rule="evenodd" d="M7.60352 0C7.80046 2.74491e-05 7.9885 0.0806925 8.125 0.222656L12.3496 4.61523C12.4793 4.75012 12.5517 4.93007 12.5518 5.11719V9H11.1035V6.27539H7C6.60008 6.27539 6.27541 5.95167 6.27539 5.55176V1.44824H3.37891C3.26036 1.44834 3.14068 1.49721 3.04785 1.59375C2.95402 1.69135 2.89648 1.82971 2.89648 1.97949V8.5H1.44824V1.97949C1.44824 1.46351 1.64508 0.963021 2.00391 0.589844C2.36357 0.215801 2.85754 0.00010211 3.37891 0H7.60352ZM7.72363 4.82715H10.5449L7.72363 1.89453V4.82715Z" fill="currentColor"/>
</svg>
