<svg width="14" height="14" viewBox="0 0 14 14" fill="none" xmlns="http://www.w3.org/2000/svg">
<path fill-rule="evenodd" clip-rule="evenodd" d="M4.05371 9.48828C4.28808 9.48833 4.50732 9.54614 4.71094 9.66211C4.91613 9.77815 5.08196 9.95746 5.20801 10.1992C5.33397 10.4409 5.39644 10.7489 5.39648 11.123C5.39648 11.4836 5.33552 11.7862 5.21387 12.0293C5.09375 12.2722 4.93153 12.4547 4.72656 12.5762C4.52285 12.6977 4.29601 12.7588 4.04688 12.7588C3.87686 12.7588 3.72907 12.7322 3.60449 12.6797C3.48007 12.6272 3.37497 12.5582 3.29004 12.4727C3.20662 12.3871 3.14208 12.2952 3.09668 12.1973H3.0752V13.9062H2V9.53027H3.06445V10.0752H3.09668C3.14065 9.97849 3.20357 9.88472 3.28418 9.79492C3.36617 9.70531 3.46988 9.63176 3.5957 9.5752C3.72322 9.51717 3.87636 9.48828 4.05371 9.48828ZM3.6748 10.2803C3.54309 10.2804 3.4311 10.3142 3.33887 10.3818C3.24658 10.4495 3.17579 10.5462 3.12598 10.6719C3.07764 10.7975 3.05276 10.9472 3.05273 11.1211C3.05273 11.2924 3.07761 11.4422 3.12598 11.5693C3.17579 11.6962 3.24666 11.7949 3.33887 11.8652C3.43256 11.9342 3.54456 11.9687 3.6748 11.9688C3.80672 11.9688 3.91938 11.9343 4.01172 11.8652C4.10395 11.7948 4.17382 11.6963 4.2207 11.5693C4.26907 11.4422 4.29297 11.2924 4.29297 11.1211C4.29294 10.9499 4.26904 10.8014 4.2207 10.6758C4.17382 10.5501 4.104 10.4529 4.01172 10.3838C3.92085 10.3147 3.80818 10.2803 3.6748 10.2803Z" fill="currentColor"/>
<path fill-rule="evenodd" clip-rule="evenodd" d="M9.24023 12.7129H8.17578V12.1973H8.14355C8.09814 12.2952 8.03363 12.3871 7.9502 12.4727C7.86671 12.5582 7.76167 12.6272 7.63574 12.6797C7.51116 12.7322 7.36338 12.7588 7.19336 12.7588C6.94442 12.7588 6.71823 12.6976 6.51465 12.5762C6.31101 12.4547 6.148 12.2723 6.02637 12.0293C5.90472 11.7862 5.84375 11.4836 5.84375 11.123C5.8438 10.7489 5.90628 10.4409 6.03223 10.1992C6.15827 9.95746 6.32362 9.77815 6.52734 9.66211C6.73249 9.54614 6.95355 9.48828 7.18945 9.48828C7.36665 9.48832 7.51856 9.51721 7.64453 9.5752C7.77037 9.63176 7.87405 9.70531 7.95605 9.79492C8.03813 9.88472 8.10105 9.97849 8.14355 10.0752H8.16504V8.46875H9.24023V12.7129ZM7.56738 10.2803C7.43401 10.2803 7.32085 10.3147 7.22852 10.3838C7.13627 10.4528 7.06592 10.5502 7.01758 10.6758C6.9707 10.8014 6.94729 10.9499 6.94727 11.1211C6.94727 11.2924 6.97116 11.4422 7.01953 11.5693C7.06787 11.6963 7.13776 11.7948 7.22852 11.8652C7.32085 11.9343 7.43401 11.9688 7.56738 11.9688C7.69777 11.9687 7.80906 11.9343 7.90137 11.8652C7.9936 11.7949 8.06443 11.6962 8.11426 11.5693C8.16409 11.4422 8.18945 11.2924 8.18945 11.1211C8.18942 10.9472 8.16406 10.7975 8.11426 10.6719C8.0659 10.5462 7.99514 10.4495 7.90137 10.3818C7.80906 10.3142 7.69777 10.2803 7.56738 10.2803Z" fill="currentColor"/>
<path d="M11.2812 8.26953C11.4306 8.26954 11.5713 8.28065 11.7031 8.30273C11.8365 8.32346 11.9355 8.3428 12 8.35938L11.8281 9.10059C11.7887 9.08823 11.7404 9.07856 11.6836 9.07031C11.628 9.06204 11.5751 9.05763 11.5254 9.05762C11.3995 9.05762 11.3126 9.0834 11.2656 9.13574C11.2187 9.18821 11.1953 9.26045 11.1953 9.35156V9.53027H11.8398V10.2764H11.1953V12.7129H10.1201V10.2764H9.66699V9.53027H10.1201V9.36816C10.1201 9.12232 10.1694 8.91844 10.2676 8.75684C10.3658 8.59388 10.5024 8.47268 10.6768 8.39258C10.8511 8.31111 11.0527 8.26953 11.2812 8.26953Z" fill="currentColor"/>
<path fill-rule="evenodd" clip-rule="evenodd" d="M7.60352 0C7.80046 2.74491e-05 7.9885 0.0806925 8.125 0.222656L12.3496 4.61523C12.4793 4.75012 12.5517 4.93007 12.5518 5.11719V7H11.1035V6.27539H7C6.60008 6.27539 6.27541 5.95167 6.27539 5.55176V1.44824H3.37891C3.26036 1.44834 3.14068 1.49721 3.04785 1.59375C2.95402 1.69135 2.89648 1.82971 2.89648 1.97949V8.5H1.44824V1.97949C1.44824 1.46351 1.64508 0.963021 2.00391 0.589844C2.36357 0.215801 2.85754 0.00010211 3.37891 0H7.60352ZM7.72363 4.82715H10.5449L7.72363 1.89453V4.82715Z" fill="currentColor"/>
</svg>
