<svg width="14" height="14" viewBox="0 0 14 14" fill="none" xmlns="http://www.w3.org/2000/svg">
<path d="M4.78711 4.91797C4.78733 4.26611 5.48255 3.85796 6.0459 4.17285L9.77051 6.25488C9.90259 6.32869 10.0122 6.43732 10.0889 6.56836C10.1656 6.69952 10.206 6.84877 10.2061 7.00098C10.206 7.15324 10.1657 7.30336 10.0889 7.43457C10.0122 7.56537 9.90143 7.67336 9.76953 7.74707L6.0459 9.83008C5.91696 9.90211 5.77148 9.93935 5.62402 9.9375C5.47646 9.93561 5.33126 9.89471 5.2041 9.81934C5.07705 9.74397 4.97161 9.63573 4.89844 9.50684C4.82547 9.37811 4.78714 9.23219 4.78711 9.08398V4.91797Z" fill="currentColor"/>
<path fill-rule="evenodd" clip-rule="evenodd" d="M11.1543 0.00390625C12.7394 0.0842145 14 1.39489 14 3V11L13.9961 11.1543C13.9184 12.6883 12.6883 13.9184 11.1543 13.9961L11 14H3C1.39489 14 0.0842144 12.7394 0.00390625 11.1543L0 11V3C1.28853e-07 1.34315 1.34315 1.61064e-08 3 0H11L11.1543 0.00390625ZM3 1.33008C2.07768 1.33008 1.33008 2.07768 1.33008 3V11C1.33008 11.9223 2.07768 12.6699 3 12.6699H11C11.9223 12.6699 12.6699 11.9223 12.6699 11V3C12.6699 2.07768 11.9223 1.33008 11 1.33008H3Z" fill="currentColor"/>
</svg>
