<svg width="14" height="14" viewBox="0 0 14 14" fill="none" xmlns="http://www.w3.org/2000/svg">
<path d="M9.4707 3.0625C9.7081 3.08694 9.93156 3.18331 10.1123 3.33594L10.1992 3.41699L10.2773 3.50586C10.4482 3.72091 10.54 3.98862 10.54 4.2627C10.54 4.57591 10.4197 4.88072 10.1992 5.1084C9.97794 5.3367 9.67275 5.46959 9.35059 5.46973C9.02845 5.46966 8.72327 5.33661 8.50195 5.1084C8.309 4.90919 8.19305 4.65107 8.16699 4.37988L8.16113 4.2627L8.16699 4.14648C8.19299 3.87503 8.30875 3.61633 8.50195 3.41699L8.58887 3.33594C8.79981 3.15781 9.06877 3.0567 9.35059 3.05664L9.4707 3.0625Z" fill="currentColor"/>
<path fill-rule="evenodd" clip-rule="evenodd" d="M11.1543 0.00390625C12.7394 0.0842145 14 1.39489 14 3V11L13.9961 11.1543C13.9184 12.6883 12.6883 13.9184 11.1543 13.9961L11 14H3C1.39489 14 0.0842144 12.7394 0.00390625 11.1543L0 11V3C1.28853e-07 1.34315 1.34315 1.61064e-08 3 0H11L11.1543 0.00390625ZM5.1543 6.9707C5.06285 6.97071 4.97143 6.98979 4.88574 7.02637C4.80006 7.06298 4.72007 7.11675 4.65234 7.18652L1.47754 10.4629C1.43342 10.5084 1.38241 10.5431 1.33008 10.5732V11C1.33008 11.9223 2.07768 12.6699 3 12.6699H11C11.9223 12.6699 12.6699 11.9223 12.6699 11V10.5732C12.6176 10.5431 12.5666 10.5084 12.5225 10.4629L10.7324 8.61523C10.6647 8.54541 10.5847 8.49074 10.499 8.4541C10.4134 8.4176 10.3218 8.39941 10.2305 8.39941C10.1391 8.39946 10.0476 8.41751 9.96191 8.4541C9.8763 8.49071 9.79718 8.54551 9.72949 8.61523L9.30957 9.04688L9.78516 9.53711C10.0406 9.80079 10.034 10.222 9.77051 10.4775C9.50683 10.7329 9.08564 10.7264 8.83008 10.4629L5.65527 7.18652C5.58771 7.11694 5.50828 7.06296 5.42285 7.02637C5.33725 6.98981 5.24565 6.97076 5.1543 6.9707ZM3 1.33008C2.07768 1.33008 1.33008 2.07768 1.33008 3V8.70312L3.69727 6.26172C3.88651 6.0665 4.11232 5.9096 4.3623 5.80273C4.61246 5.69584 4.88225 5.64063 5.1543 5.64062C5.42618 5.64069 5.69531 5.69592 5.94531 5.80273C6.1953 5.9096 6.4211 6.06651 6.61035 6.26172L8.38379 8.0918L8.77441 7.68945C8.96363 7.49435 9.18955 7.33826 9.43945 7.23145C9.68951 7.12459 9.95852 7.06938 10.2305 7.06934C10.5025 7.06934 10.7723 7.12457 11.0225 7.23145C11.2723 7.33828 11.4983 7.49437 11.6875 7.68945L12.6699 8.70312V3C12.6699 2.07768 11.9223 1.33008 11 1.33008H3Z" fill="currentColor"/>
</svg>
