<svg width="14" height="14" viewBox="0 0 14 14" fill="none" xmlns="http://www.w3.org/2000/svg">
<path fill-rule="evenodd" clip-rule="evenodd" d="M7 1.35484C3.88226 1.35484 1.35484 3.88226 1.35484 7C1.35484 10.1177 3.88226 12.6452 7 12.6452C10.1177 12.6452 12.6452 10.1177 12.6452 7C12.6452 3.88226 10.1177 1.35484 7 1.35484ZM0 7C0 3.13401 3.13401 0 7 0C10.866 0 14 3.13401 14 7C14 10.866 10.866 14 7 14C3.13401 14 0 10.866 0 7ZM7 6.09677C7.67742 6.09677 7.67742 6.62587 7.67742 7V9.70968H8.80645V10.6129H5.19355V9.70968H6.32258V7H5.19355V6.09677C5.19355 6.09677 6.8265 6.09677 7 6.09677ZM7 3.3871C6.50116 3.3871 6.09677 3.79148 6.09677 4.29032C6.09677 4.78916 6.50116 5.19355 7 5.19355H7.00602C7.50486 5.19355 7.90925 4.78916 7.90925 4.29032C7.90925 3.79148 7.50486 3.3871 7.00602 3.3871H7Z" fill="currentColor"/>
</svg>
