<svg width="14" height="14" viewBox="0 0 14 14" fill="none" xmlns="http://www.w3.org/2000/svg">
<path d="M10.3334 1.58324C10.7476 1.58324 11.0834 1.91902 11.0834 2.33324C11.0834 2.74745 10.7476 3.08324 10.3334 3.08324H8.89914L6.661 10.9167H7.66675C8.08096 10.9167 8.41675 11.2525 8.41675 11.6667C8.41675 12.0809 8.08096 12.4167 7.66675 12.4167C7.66227 12.4168 3.66675 12.4167 3.66675 12.4167C3.25253 12.4167 2.91675 12.0809 2.91675 11.6667C2.91675 11.2525 3.25253 10.9167 3.66675 10.9167H5.10098L7.33912 3.08324H6.33337C5.91916 3.08324 5.58337 2.74745 5.58337 2.33324C5.58337 1.91902 5.91916 1.58324 6.33337 1.58324H10.3334Z" fill="currentColor"/>
</svg>
