<svg width="14" height="14" viewBox="0 0 14 14" fill="none" xmlns="http://www.w3.org/2000/svg">
<path d="M4.165 3.66502H5.33503C5.7023 3.66502 6.00003 3.36729 6.00003 3.00002C6.00003 2.63275 5.7023 2.33502 5.33503 2.33502H4.165C2.29773 2.33502 0 4.13275 0 7.00002C0 9.86729 2.29773 11.665 4.165 11.665H5.33503C5.7023 11.665 6.00003 11.3673 6.00003 11C6.00003 10.6328 5.7023 10.335 5.33503 10.335H4.165C3.03227 10.335 1.33 9.13275 1.33 7.00002C1.33 4.86729 3.03227 3.66502 4.165 3.66502Z" fill="currentColor"/>
<path d="M9.835 3.66502H8.66503C8.29776 3.66502 8.00003 3.36729 8.00003 3.00002C8.00003 2.63275 8.29776 2.33502 8.66503 2.33502H9.835C11.7023 2.33502 14 4.13275 14 7.00002C14 9.86729 11.7023 11.665 9.835 11.665H8.66503C8.29776 11.665 8.00003 11.3673 8.00003 11C8.00003 10.6328 8.29776 10.335 8.66503 10.335H9.835C10.9677 10.335 12.67 9.13275 12.67 7.00002C12.67 4.86729 10.9677 3.66502 9.835 3.66502Z" fill="currentColor"/>
<path d="M5.00005 6.33502C4.63278 6.33502 4.33505 6.63275 4.33505 7.00002C4.33505 7.36729 4.63278 7.66502 5.00005 7.66502H9.00005C9.36732 7.66502 9.66505 7.36729 9.66505 7.00002C9.66505 6.63275 9.36732 6.33502 9.00005 6.33502H5.00005Z" fill="currentColor"/>
</svg>
