<svg width="14" height="14" viewBox="0 0 14 14" fill="none" xmlns="http://www.w3.org/2000/svg">
<path d="M3.50011 1.66676C3.50011 1.46453 3.37829 1.28221 3.19145 1.20482C3.00461 1.12743 2.78955 1.17021 2.64655 1.31321L1.31322 2.64654C1.11796 2.8418 1.11796 3.15839 1.31322 3.35365C1.50848 3.54891 1.82506 3.54891 2.02033 3.35365L2.50011 2.87387V5.66676C2.50011 5.94291 2.72396 6.16676 3.00011 6.16676C3.27625 6.16676 3.50011 5.94291 3.50011 5.66676V1.66676Z" fill="currentColor"/>
<path d="M5.5834 3.00001C5.5834 2.5858 5.91919 2.25001 6.3334 2.25001H12.3334C12.7476 2.25001 13.0834 2.5858 13.0834 3.00001C13.0834 3.41423 12.7476 3.75001 12.3334 3.75001H6.3334C5.91919 3.75001 5.5834 3.41423 5.5834 3.00001Z" fill="currentColor"/>
<path d="M5.5834 7.00001C5.5834 6.5858 5.91919 6.25001 6.3334 6.25001H12.3334C12.7476 6.25001 13.0834 6.5858 13.0834 7.00001C13.0834 7.41423 12.7476 7.75001 12.3334 7.75001H6.3334C5.91919 7.75001 5.5834 7.41423 5.5834 7.00001Z" fill="currentColor"/>
<path d="M7.00009 10.25C6.58587 10.25 6.25009 10.5858 6.25009 11C6.25009 11.4142 6.58587 11.75 7.00009 11.75H12.3334C12.7476 11.75 13.0834 11.4142 13.0834 11C13.0834 10.5858 12.7476 10.25 12.3334 10.25H7.00009Z" fill="currentColor"/>
<path d="M3.00011 8.83327C2.77909 8.83327 2.56713 8.92106 2.41085 9.07734C2.25457 9.23363 2.16677 9.44559 2.16677 9.6666C2.16677 9.94274 1.94292 10.1666 1.66677 10.1666C1.39063 10.1666 1.16677 9.94274 1.16677 9.6666C1.16677 9.18037 1.35993 8.71405 1.70374 8.37024C2.04756 8.02642 2.51388 7.83327 3.00011 7.83327C3.48634 7.83327 3.95265 8.02642 4.29647 8.37024C4.64029 8.71405 4.83344 9.18037 4.83344 9.6666C4.83344 10.0184 4.68035 10.292 4.51826 10.4983C4.40066 10.6479 4.24754 10.7975 4.11878 10.9233C4.08376 10.9575 4.05054 10.9899 4.02033 11.0202C4.00964 11.0308 3.99848 11.041 3.98687 11.0507L3.0478 11.8333H4.33344C4.60958 11.8333 4.83344 12.0571 4.83344 12.3333C4.83344 12.6094 4.60958 12.8333 4.33344 12.8333H1.66677C1.45626 12.8333 1.2683 12.7014 1.19664 12.5035C1.12497 12.3055 1.18496 12.0839 1.34668 11.9492L3.32945 10.2969C3.37482 10.2517 3.41644 10.2109 3.45487 10.1733C3.57142 10.0592 3.65859 9.9738 3.73196 9.88043C3.81986 9.76855 3.83344 9.70878 3.83344 9.6666C3.83344 9.44559 3.74564 9.23363 3.58936 9.07734C3.43308 8.92106 3.22112 8.83327 3.00011 8.83327Z" fill="currentColor"/>
</svg>
