<svg width="14" height="14" viewBox="0 0 14 14" fill="none" xmlns="http://www.w3.org/2000/svg">
<path fill-rule="evenodd" clip-rule="evenodd" d="M5 3C5 2.58579 5.33579 2.25 5.75 2.25H11.75C12.1642 2.25 12.5 2.58579 12.5 3C12.5 3.41421 12.1642 3.75 11.75 3.75H5.75C5.33579 3.75 5 3.41421 5 3ZM2.25 6.25C1.83579 6.25 1.5 6.58579 1.5 7C1.5 7.41421 1.83579 7.75 2.25 7.75C2.66421 7.75 3 7.41421 3 7C3 6.58579 2.66421 6.25 2.25 6.25ZM5.75 6.25C5.33579 6.25 5 6.58579 5 7C5 7.41421 5.33579 7.75 5.75 7.75H11.75C12.1642 7.75 12.5 7.41421 12.5 7C12.5 6.58579 12.1642 6.25 11.75 6.25H5.75ZM5 11C5 10.5858 5.33579 10.25 5.75 10.25H11.75C12.1642 10.25 12.5 10.5858 12.5 11C12.5 11.4142 12.1642 11.75 11.75 11.75H5.75C5.33579 11.75 5 11.4142 5 11ZM2.25 10.25C1.83579 10.25 1.5 10.5858 1.5 11C1.5 11.4142 1.83579 11.75 2.25 11.75C2.66421 11.75 3 11.4142 3 11C3 10.5858 2.66421 10.25 2.25 10.25ZM2.25 2.25C1.83579 2.25 1.5 2.58579 1.5 3C1.5 3.41421 1.83579 3.75 2.25 3.75C2.66421 3.75 3 3.41421 3 3C3 2.58579 2.66421 2.25 2.25 2.25Z" fill="currentColor"/>
</svg>
