<svg width="14" height="14" viewBox="0 0 14 14" fill="none" xmlns="http://www.w3.org/2000/svg">
<path d="M7.66502 11.3317V8.00167H6.33502V11.3317H7.66502Z" fill="currentColor"/>
<path fill-rule="evenodd" clip-rule="evenodd" d="M10.5 4.16672L10.5 5.33333C11.6046 5.33333 12.5 6.22877 12.5 7.33333V12C12.5 13.1046 11.6046 14 10.5 14H3.5C2.39543 14 1.5 13.1046 1.5 12V7.33333C1.5 6.22877 2.39543 5.33333 3.5 5.33333H3.66667L3.66669 4.16672C3.66669 3.10585 3.99436 2.03654 4.74451 1.28639C5.49466 0.536249 6.17969 0.333368 7 0.333368C7.82031 0.333368 8.61704 0.536249 9.36719 1.28639C10.1173 2.03654 10.5 3.10585 10.5 4.16672ZM5.59375 2.2292C6.09385 1.72911 6.5 1.6667 7 1.6667C7.5 1.6667 7.92428 1.72911 8.42438 2.2292C8.92448 2.7293 9.16669 3.45948 9.16669 4.16672L9.16667 5.33333H5L5.00002 4.16672C5.00002 3.45948 5.09365 2.7293 5.59375 2.2292ZM2.83333 7.33333C2.83333 6.96515 3.13181 6.66667 3.5 6.66667H10.5C10.8682 6.66667 11.1667 6.96514 11.1667 7.33333V12C11.1667 12.3682 10.8682 12.6667 10.5 12.6667H3.5C3.13181 12.6667 2.83333 12.3682 2.83333 12V7.33333Z" fill="currentColor"/>
</svg>
