<svg width="13" height="14" viewBox="0 0 13 14" fill="none" xmlns="http://www.w3.org/2000/svg">
<g clip-path="url(#clip0_224_275)">
<path d="M3 0C1.34315 4.83192e-08 1.28853e-07 1.34315 0 3V11L0.00390625 11.1543C0.0816258 12.6883 1.31166 13.9184 2.8457 13.9961L3 14H8L8.1543 13.9961C9.68833 13.9184 10.9184 12.6883 10.9961 11.1543L11 11.0156C10.5978 11.3043 10.1062 11.4128 9.63477 11.3418C9.47704 12.1001 8.80515 12.6699 8 12.6699H3C2.07768 12.6699 1.33008 11.9223 1.33008 11V3C1.33008 2.07768 2.07768 1.33008 3 1.33008H8C8.80482 1.33009 9.47668 1.89935 9.63477 2.65723C10.1062 2.5864 10.5979 2.69641 11 2.98535C10.9921 1.33524 9.65196 1.18194e-05 8 0H3Z" fill="currentColor"/>
<path d="M10.3926 4.03809C10.1375 3.77394 9.71634 3.76641 9.45215 4.02148C9.18806 4.27654 9.18064 4.69771 9.43555 4.96191L10.7617 6.33496H5C4.63273 6.33496 4.33496 6.63273 4.33496 7C4.33497 7.36727 4.63273 7.66504 5 7.66504H10.7617L9.43555 9.03809C9.18064 9.30229 9.18806 9.72346 9.45215 9.97852C9.71634 10.2336 10.1375 10.2261 10.3926 9.96191L12.8066 7.46191C13.0554 7.20425 13.0554 6.79575 12.8066 6.53809L10.3926 4.03809Z" fill="currentColor"/>
</g>
<defs>
<clipPath id="clip0_224_275">
<rect width="13" height="14" fill="white" transform="matrix(-1 0 0 1 13 0)"/>
</clipPath>
</defs>
</svg>
