<svg width="14" height="14" viewBox="0 0 14 14" fill="none" xmlns="http://www.w3.org/2000/svg">
<g clip-path="url(#clip0_225_60)">
<path d="M0.71875 3.62272C0.71875 8.95953 5.0454 13.2862 10.3822 13.2862H11.8317C12.2162 13.2862 12.5849 13.1335 12.8567 12.8616C13.1285 12.5898 13.2812 12.2211 13.2812 11.8367V10.639C13.2812 10.3066 13.0551 10.0167 12.7324 9.93619L9.88293 9.22367C9.59947 9.1528 9.30184 9.2591 9.12725 9.49231L8.50235 10.639C8.32067 10.8813 8.00693 10.9882 7.72283 10.8838C6.66814 10.4961 5.71035 9.88374 4.91577 9.08916C4.1212 8.29459 3.50883 7.33679 3.12109 6.28211C3.01672 5.998 3.12366 5.68426 3.36589 5.50259L4.51262 4.77412C4.74648 4.59953 4.85213 4.30125 4.78127 4.01843L4.06875 1.169C4.02954 1.01226 3.93908 0.873109 3.81174 0.773661C3.68439 0.674214 3.52747 0.620171 3.36589 0.620117L2.16827 0.723686C1.78383 0.723686 1.41514 0.876403 1.1433 1.14824C0.871467 1.42008 0.71875 1.78877 0.71875 2.17321V3.62272Z" fill="currentColor"/>
</g>
<defs>
<clipPath id="clip0_225_60">
<rect width="14" height="14" fill="white"/>
</clipPath>
</defs>
</svg>
