<svg width="14" height="14" viewBox="0 0 14 14" fill="none" xmlns="http://www.w3.org/2000/svg">
<g clip-path="url(#clip0_225_73)">
<path fill-rule="evenodd" clip-rule="evenodd" d="M8.32266 0.785228C8.58301 0.524878 9.00567 0.524878 9.26602 0.785228L9.61953 1.13874C9.62133 1.1405 9.62361 1.14184 9.62539 1.14363C9.62686 1.14509 9.62785 1.14703 9.6293 1.14851L12.851 4.37117C12.8524 4.37261 12.8544 4.37361 12.8559 4.37507L12.8588 4.37898L13.2143 4.73445C13.4746 4.9948 13.4746 5.41648 13.2143 5.67683C12.9925 5.89811 12.6551 5.92929 12.3988 5.77351L10.0854 8.08796L9.05996 10.8233C9.02663 10.9122 8.97469 10.9934 8.90762 11.0606L7.83047 12.1378C7.57017 12.3981 7.14845 12.398 6.88809 12.1378L4.8461 10.0958L2.08731 12.8555C1.82696 13.1159 1.4043 13.1159 1.14395 12.8555C0.883951 12.5953 0.884016 12.1735 1.14395 11.9132L3.90274 9.15339L1.86172 7.11238C1.60162 6.85214 1.60178 6.43033 1.86172 6.16999L2.93887 5.09284L2.9916 5.04499C3.04693 5.00039 3.10935 4.96459 3.17617 4.93952L5.91153 3.91413L8.225 1.59968C8.07048 1.34343 8.10189 1.00642 8.32266 0.785228ZM6.75332 4.95808C6.68607 5.02533 6.60506 5.07798 6.51602 5.1114L3.77774 6.13777L3.27578 6.6407L5.31192 8.67683C5.31373 8.6786 5.31598 8.67992 5.31778 8.68171C5.31921 8.68315 5.32026 8.68515 5.32168 8.68659L7.35879 10.7237L7.8627 10.2188L8.88906 7.48347L8.91739 7.41902C8.9493 7.35546 8.9909 7.29667 9.04141 7.24617L11.4408 4.84675L9.15274 2.55867L6.75332 4.95808Z" fill="currentColor"/>
</g>
<defs>
<clipPath id="clip0_225_73">
<rect width="14" height="14" fill="white"/>
</clipPath>
</defs>
</svg>
