<svg width="14" height="14" viewBox="0 0 14 14" fill="none" xmlns="http://www.w3.org/2000/svg">
<path fill-rule="evenodd" clip-rule="evenodd" d="M3.41508 0.615076C3.8089 0.221249 4.34305 0 4.9 0H9.1C9.65695 0 10.1911 0.22125 10.5849 0.615076C10.9787 1.0089 11.2 1.54305 11.2 2.1V4.2H11.9C12.457 4.2 12.9911 4.42125 13.3849 4.81508C13.7787 5.2089 14 5.74304 14 6.3V9.1C14 9.65696 13.7787 10.1911 13.3849 10.5849C12.9911 10.9788 12.457 11.2 11.9 11.2H11.2V11.9C11.2 12.457 10.9787 12.9911 10.5849 13.3849C10.1911 13.7788 9.65695 14 9.1 14H4.9C4.34305 14 3.8089 13.7788 3.41508 13.3849C3.02125 12.9911 2.8 12.457 2.8 11.9V11.2H2.1C1.54305 11.2 1.0089 10.9788 0.615076 10.5849C0.221249 10.1911 0 9.65695 0 9.1V6.3C0 5.74305 0.221249 5.2089 0.615076 4.81508C1.0089 4.42125 1.54305 4.2 2.1 4.2H2.8V2.1C2.8 1.54305 3.02125 1.0089 3.41508 0.615076ZM2.1 5.6C1.91435 5.6 1.7363 5.67375 1.60503 5.80503C1.47375 5.9363 1.4 6.11435 1.4 6.3V9.1C1.4 9.28565 1.47375 9.4637 1.60503 9.59498C1.7363 9.72625 1.91435 9.8 2.1 9.8H2.8V9.1C2.8 8.54305 3.02125 8.0089 3.41508 7.61508C3.8089 7.22125 4.34305 7 4.9 7H9.1C9.65696 7 10.1911 7.22125 10.5849 7.61508C10.9787 8.0089 11.2 8.54305 11.2 9.1V9.8H11.9C12.0857 9.8 12.2637 9.72625 12.395 9.59498C12.5263 9.4637 12.6 9.28565 12.6 9.1V6.3C12.6 6.11435 12.5263 5.9363 12.395 5.80503C12.2637 5.67375 12.0857 5.6 11.9 5.6H2.1ZM9.8 4.2H4.2V2.1C4.2 1.91435 4.27375 1.7363 4.40503 1.60503C4.5363 1.47375 4.71435 1.4 4.9 1.4H9.1C9.28565 1.4 9.4637 1.47375 9.59497 1.60503C9.72625 1.7363 9.8 1.91435 9.8 2.1V4.2ZM9.8 9.1C9.8 8.91435 9.72625 8.7363 9.59497 8.60503C9.4637 8.47375 9.28565 8.4 9.1 8.4H4.9C4.71435 8.4 4.5363 8.47375 4.40503 8.60503C4.27375 8.7363 4.2 8.91435 4.2 9.1V11.9C4.2 12.0857 4.27375 12.2637 4.40503 12.395C4.5363 12.5263 4.71435 12.6 4.9 12.6H9.1C9.28565 12.6 9.4637 12.5263 9.59497 12.395C9.72625 12.2637 9.8 12.0857 9.8 11.9V9.1Z" fill="currentColor"/>
</svg>
