<svg width="14" height="14" viewBox="0 0 14 14" fill="none" xmlns="http://www.w3.org/2000/svg">
<path fill-rule="evenodd" clip-rule="evenodd" d="M5.01021 2.20471C5.27978 2.47766 5.27978 2.92019 5.01021 3.19314L3.35671 4.86738H9.47788C10.412 4.86738 11.3079 5.24312 11.9684 5.91193C12.6289 6.58074 13 7.48785 13 8.43369C13 9.37954 12.6289 10.2866 11.9684 10.9555C11.3079 11.6243 10.412 12 9.47788 12H8.76991C8.38869 12 8.07965 11.6871 8.07965 11.3011C8.07965 10.9151 8.38869 10.6021 8.76991 10.6021H9.47788C10.0459 10.6021 10.5906 10.3737 10.9922 9.96702C11.3938 9.56036 11.6195 9.0088 11.6195 8.43369C11.6195 7.85858 11.3938 7.30702 10.9922 6.90036C10.5906 6.49369 10.0459 6.26523 9.47788 6.26523H3.35671L5.01021 7.93948C5.27978 8.21242 5.27978 8.65496 5.01021 8.92791C4.74065 9.20085 4.3036 9.20085 4.03403 8.92791L1.20217 6.06052C0.932609 5.78758 0.932609 5.34504 1.20217 5.07209L4.03403 2.20471C4.3036 1.93176 4.74065 1.93176 5.01021 2.20471Z" fill="currentColor"/>
</svg>
