<svg width="14" height="14" viewBox="0 0 14 14" fill="none" xmlns="http://www.w3.org/2000/svg">
<path d="M1.66496 7.00002C1.66496 4.05358 4.05352 1.66502 6.99996 1.66502C8.97383 1.66502 10.6982 2.73663 11.6216 4.333L11.6228 4.33502H8.99996C8.63269 4.33502 8.33496 4.63275 8.33496 5.00002C8.33496 5.36729 8.63269 5.66502 8.99996 5.66502H13C13.3672 5.66502 13.665 5.36729 13.665 5.00002V1.00002C13.665 0.632753 13.3672 0.335022 13 0.335022C12.6327 0.335022 12.335 0.632753 12.335 1.00002V3.00449C11.1199 1.38464 9.1828 0.335022 6.99996 0.335022C3.31898 0.335022 0.334961 3.31904 0.334961 7.00002C0.334961 10.681 3.31898 13.665 6.99996 13.665C8.59986 13.665 10.0697 13.1005 11.2185 12.1603C11.5027 11.9277 11.5446 11.5088 11.312 11.2245C11.0794 10.9403 10.6604 10.8985 10.3762 11.1311C9.45627 11.8839 8.28169 12.335 6.99996 12.335C4.05352 12.335 1.66496 9.94646 1.66496 7.00002Z" fill="currentColor"/>
</svg>
