<svg width="14" height="14" viewBox="0 0 14 14" fill="none" xmlns="http://www.w3.org/2000/svg">
<path d="M8.94762 1.89718C8.36313 1.678 7.67598 1.57333 6.9942 1.58343H6.33327C5.51552 1.58343 4.73126 1.90828 4.15303 2.48652C3.57479 3.06475 3.24994 3.84901 3.24994 4.66676C3.24994 5.22904 3.40352 5.77548 3.68745 6.25H2.33325C1.91904 6.25 1.58325 6.58579 1.58325 7C1.58325 7.41421 1.91904 7.75 2.33325 7.75L7.66661 7.7501C8.08653 7.7501 8.48926 7.91691 8.78619 8.21384C9.08312 8.51078 9.24994 8.9135 9.24994 9.33343C9.24994 9.75336 9.08312 10.1561 8.78619 10.453C8.48926 10.7499 8.08653 10.9168 7.66661 10.9168H6.66661L6.65474 10.9169C6.12738 10.9252 5.62879 10.8422 5.24561 10.6985C4.84041 10.5466 4.69538 10.379 4.66663 10.3232C4.4769 9.95502 4.0246 9.81034 3.6564 10.0001C3.28819 10.1898 3.14351 10.6421 3.33325 11.0103C3.60684 11.5412 4.15472 11.8914 4.71893 12.103C5.30341 12.3222 5.99053 12.4269 6.6723 12.4168H7.66661C8.48436 12.4168 9.26861 12.0919 9.84685 11.5137C10.4251 10.9354 10.7499 10.1512 10.7499 9.33343C10.7499 8.77108 10.5963 8.22457 10.3123 7.75H11.6666C12.0808 7.75 12.4166 7.41421 12.4166 7C12.4166 6.58579 12.0808 6.25 11.6666 6.25H6.31567C5.9021 6.24541 5.50647 6.07913 5.21369 5.78635C4.91675 5.48942 4.74994 5.08669 4.74994 4.66676C4.74994 4.24684 4.91675 3.84411 5.21369 3.54718C5.51062 3.25025 5.91335 3.08343 6.33327 3.08343H6.99994L7.0118 3.08334C7.53917 3.07499 8.03776 3.15799 8.42093 3.30168C8.82613 3.45363 8.97117 3.62119 8.99991 3.67697C9.18965 4.04518 9.64195 4.18986 10.0101 4.00012C10.3784 3.81039 10.523 3.35809 10.3333 2.98989C10.0597 2.45895 9.51183 2.10876 8.94762 1.89718Z" fill="currentColor"/>
</svg>
