<svg width="14" height="14" viewBox="0 0 14 14" fill="none" xmlns="http://www.w3.org/2000/svg">
<g clip-path="url(#clip0_232_133)">
<path fill-rule="evenodd" clip-rule="evenodd" d="M12.4443 0.25C12.8569 0.25 13.2522 0.414331 13.5439 0.706055C13.8357 0.997778 14 1.39311 14 1.80566V12.1631C14 12.5756 13.8357 12.971 13.5439 13.2627C13.2522 13.5544 12.8569 13.7188 12.4443 13.7188H1.55566L1.40137 13.7109C1.09615 13.6805 0.806544 13.5607 0.569336 13.3662L0.456055 13.2627C0.164331 12.971 0 12.5756 0 12.1631V1.80566C0 1.44452 0.125556 1.0962 0.352539 0.819336L0.456055 0.706055C0.711204 0.450906 1.04543 0.293259 1.40137 0.257812L1.55566 0.25H12.4443ZM6.11133 12.3857H12.4443C12.5033 12.3857 12.5599 12.362 12.6016 12.3203C12.6432 12.2786 12.667 12.222 12.667 12.1631V6.11133H6.11133V12.3857ZM1.33301 12.1631C1.33301 12.222 1.35676 12.2786 1.39844 12.3203C1.44011 12.362 1.49673 12.3857 1.55566 12.3857H4.77734V6.11133H1.33301V12.1631ZM6.11133 4.77734H12.667V1.80566C12.667 1.74673 12.6432 1.69011 12.6016 1.64844C12.5599 1.60676 12.5033 1.58301 12.4443 1.58301H6.11133V4.77734ZM1.55566 1.58301C1.49673 1.58301 1.44011 1.60676 1.39844 1.64844C1.35676 1.69011 1.33301 1.74673 1.33301 1.80566V4.77734H4.77734V1.58301H1.55566Z" fill="currentColor"/>
</g>
<defs>
<clipPath id="clip0_232_133">
<rect width="14" height="14" fill="white"/>
</clipPath>
</defs>
</svg>
