<svg width="14" height="14" viewBox="0 0 14 14" fill="none" xmlns="http://www.w3.org/2000/svg">
<path d="M11.8096 11.1449C12.1768 11.1449 12.4745 11.4428 12.4746 11.8099C12.4746 12.1772 12.1768 12.475 11.8096 12.475H2.18457C1.8173 12.475 1.51953 12.1772 1.51953 11.8099C1.51963 11.4428 1.81736 11.1449 2.18457 11.1449H11.8096ZM2.83203 6.55896V2.18396C2.83203 1.81669 3.1298 1.51892 3.49707 1.51892C3.86434 1.51892 4.16211 1.81669 4.16211 2.18396V6.55896C4.16211 6.93126 4.23546 7.29996 4.37793 7.64392C4.5204 7.98785 4.72895 8.30061 4.99219 8.56384C5.25542 8.82708 5.56818 9.03563 5.91211 9.1781C6.25607 9.32057 6.62477 9.39392 6.99707 9.39392C7.36937 9.39392 7.73807 9.32057 8.08203 9.1781C8.42596 9.03563 8.73872 8.82708 9.00195 8.56384C9.26519 8.30061 9.47374 7.98785 9.61621 7.64392C9.75868 7.29996 9.83203 6.93126 9.83203 6.55896V2.18396C9.83203 1.81669 10.1298 1.51892 10.4971 1.51892C10.8643 1.51892 11.1621 1.81669 11.1621 2.18396V6.55896C11.1621 7.10592 11.054 7.64739 10.8447 8.15271C10.6354 8.65803 10.3291 9.11752 9.94238 9.50427C9.55563 9.89103 9.09614 10.1973 8.59082 10.4066C8.0855 10.6159 7.54403 10.724 6.99707 10.724C6.45012 10.724 5.90864 10.6159 5.40332 10.4066C4.898 10.1973 4.43851 9.89103 4.05176 9.50427C3.665 9.11752 3.35872 8.65803 3.14941 8.15271C2.9401 7.64739 2.83203 7.10592 2.83203 6.55896Z" fill="currentColor"/>
</svg>
