<svg width="14" height="14" viewBox="0 0 14 14" fill="none" xmlns="http://www.w3.org/2000/svg">
<g clip-path="url(#clip0_230_88)">
<path d="M3.61621 6.29899L3.27539 6.64079L5.31152 8.67692C5.31327 8.67863 5.31562 8.6801 5.31738 8.68181L5.32129 8.68669L7.3584 10.7238L7.67383 10.4064L8.61133 11.3556L7.83008 12.1379C7.56975 12.3979 7.14796 12.398 6.8877 12.1379L4.8457 10.0959L2.08691 12.8556C1.82654 13.1157 1.4038 13.1159 1.14355 12.8556C0.883838 12.5955 0.883983 12.1735 1.14355 11.9133L3.90234 9.15349L1.86133 7.11247C1.6015 6.85232 1.60174 6.43039 1.86133 6.17009L2.67969 5.35075L3.61621 6.29899Z" fill="currentColor"/>
<path fill-rule="evenodd" clip-rule="evenodd" d="M8.32227 0.785321C8.58256 0.525032 9.00526 0.525151 9.26562 0.785321L9.61914 1.13884C9.62088 1.14054 9.62324 1.14202 9.625 1.14372L9.62891 1.1486L12.8506 4.37126L12.8555 4.37516L12.8584 4.37907L13.2139 4.73454C13.4742 4.99489 13.4742 5.41658 13.2139 5.67692C12.9922 5.89793 12.6546 5.92931 12.3984 5.7736L10.085 8.08806L9.67383 9.18181L12.5576 12.1779L11.6924 13.0099L0.911133 1.80681L1.77637 0.974774L4.95117 4.2736L5.91113 3.91423L8.22461 1.59977C8.07024 1.34366 8.10181 1.00648 8.32227 0.785321ZM6.75293 4.95817C6.68574 5.02528 6.60454 5.07812 6.51562 5.11149L5.95801 5.3195L8.65039 8.11735L8.88867 7.48356L8.91699 7.41911C8.94884 7.35568 8.99064 7.2967 9.04102 7.24626L11.4404 4.84684L9.15234 2.55876L6.75293 4.95817Z" fill="currentColor"/>
</g>
<defs>
<clipPath id="clip0_230_88">
<rect width="14" height="14" fill="white"/>
</clipPath>
</defs>
</svg>
