<svg width="14" height="14" viewBox="0 0 14 14" fill="none" xmlns="http://www.w3.org/2000/svg">
<path d="M6 3.375C6.34518 3.375 6.625 3.65482 6.625 4V5.375H8C8.34518 5.375 8.625 5.65482 8.625 6C8.625 6.34518 8.34518 6.625 8 6.625H6.625V8C6.625 8.34518 6.34518 8.625 6 8.625C5.65482 8.625 5.375 8.34518 5.375 8V6.625H4C3.65482 6.625 3.375 6.34518 3.375 6C3.375 5.65482 3.65482 5.375 4 5.375H5.375V4C5.375 3.65482 5.65482 3.375 6 3.375Z" fill="currentColor"/>
<path fill-rule="evenodd" clip-rule="evenodd" d="M5.87988 0C9.12728 0 11.7597 2.6325 11.7598 5.87988C11.7598 7.20052 11.3249 8.41981 10.5898 9.40137L13.7539 12.5664C14.0818 12.8945 14.0819 13.4259 13.7539 13.7539C13.4259 14.0819 12.8945 14.0818 12.5664 13.7539L9.40137 10.5898C8.41981 11.3249 7.20052 11.7598 5.87988 11.7598C2.6325 11.7597 0 9.12728 0 5.87988C6.3393e-05 2.63254 2.63254 6.33948e-05 5.87988 0ZM5.87988 1.67969C3.56038 1.67975 1.67975 3.56038 1.67969 5.87988C1.67969 8.19944 3.56034 10.08 5.87988 10.0801C8.19948 10.0801 10.0801 8.19948 10.0801 5.87988C10.08 3.56034 8.19944 1.67969 5.87988 1.67969Z" fill="currentColor"/>
</svg>
